inDegrees=no
num_controls=7
num_derivatives=13
num_iterations=103
num_multipliers=7
num_parameters=0
num_slacks=7
num_states=26
objective=5.728655
objective_accelerations=0.362841
objective_balance=0.016442
objective_effort=0.413516
objective_height=4.913427
objective_ligament=0.022429
solver_duration=887.199144
status=Solve_Succeeded
success=true
DataType=double
version=3
OpenSimVersion=4.4-2022-07-23-0e9fedc
endheader
time	/jointset/ground_pelvis/pelvis_tilt/value	/jointset/ground_pelvis/pelvis_tx/value	/jointset/ground_pelvis/pelvis_ty/value	/jointset/hip_r/hip_flexion_r/value	/jointset/hip_r/hip_adduction_r/value	/jointset/hip_r/hip_rotation_r/value	/jointset/back/lumbar_extension/value	/jointset/patellofemoral_r/patellar_flexion_r/value	/jointset/knee_r/knee_flexion_r/value	/jointset/knee_r/knee_adduction_r/value	/jointset/knee_r/knee_rotation_r/value	/jointset/ankle_r/ankle_angle_r/value	/jointset/subtalar_r/subtalar_angle_r/value	/jointset/ground_pelvis/pelvis_tilt/speed	/jointset/ground_pelvis/pelvis_tx/speed	/jointset/ground_pelvis/pelvis_ty/speed	/jointset/hip_r/hip_flexion_r/speed	/jointset/hip_r/hip_adduction_r/speed	/jointset/hip_r/hip_rotation_r/speed	/jointset/back/lumbar_extension/speed	/jointset/patellofemoral_r/patellar_flexion_r/speed	/jointset/knee_r/knee_flexion_r/speed	/jointset/knee_r/knee_adduction_r/speed	/jointset/knee_r/knee_rotation_r/speed	/jointset/ankle_r/ankle_angle_r/speed	/jointset/subtalar_r/subtalar_angle_r/speed	/forceset/tau_hip_flexion_r	/forceset/tau_hip_adduction_r	/forceset/tau_hip_rotation_r	/forceset/tau_knee_flexion_r	/forceset/tau_ankle_angle_r	/forceset/tau_subtalar_angle_r	/forceset/tau_lumbar_extension	lambda_cid13_p0	lambda_cid14_p0	lambda_cid14_p1	lambda_cid14_p2	lambda_cid14_p3	lambda_cid14_p4	lambda_cid14_p5	/jointset/ground_pelvis/pelvis_tilt/accel	/jointset/ground_pelvis/pelvis_tx/accel	/jointset/ground_pelvis/pelvis_ty/accel	/jointset/hip_r/hip_flexion_r/accel	/jointset/hip_r/hip_adduction_r/accel	/jointset/hip_r/hip_rotation_r/accel	/jointset/back/lumbar_extension/accel	/jointset/patellofemoral_r/patellar_flexion_r/accel	/jointset/knee_r/knee_flexion_r/accel	/jointset/knee_r/knee_adduction_r/accel	/jointset/knee_r/knee_rotation_r/accel	/jointset/ankle_r/ankle_angle_r/accel	/jointset/subtalar_r/subtalar_angle_r/accel	gamma_cid13_p0	gamma_cid14_p0	gamma_cid14_p1	gamma_cid14_p2	gamma_cid14_p3	gamma_cid14_p4	gamma_cid14_p5
1.5	-0.08782679981191516	0.06740897128419511	0.8793265620623644	0.6149745797996623	-0.2283712668509693	-0.1482515356751076	-0.2725697974984767	0.609511067581226	0.609511067581254	0.05046876543302092	0.1744853684292465	0.250336048745706	0.0553594131907124	0.1709033026911099	0.102445906724708	0.2902003783123981	-1.305427662056478	0.01689717250753133	-0.2784088093239828	0.6980059629700703	-1.666537927501524	-1.666537927501519	0.2695998804571462	0.0003125054971482804	-0.6207135113805633	-0.1532805694652557	-0.04934033031959219	-0.02158228983335592	0.005325559039623287	-0.3221568241974337	0.06158123709905502	-0.01275960694927307	0.1112883478606548	-36.12708335274603	-22.14546845752969	-5.083066092522742	-3.68234098727194	2.396635721070297	-664.2504578104555	59.38033860923527	0.04511593619464561	0.2482639680341456	-0.4253826759732872	-0.6450885891845322	0.002305206945487079	-0.5314558240591274	1.104104123209505	-0.8423697817185398	-0.8423697817185399	0.3151141623599575	-0.02130865272761377	-0.3433553692841738	0.0291555624903606	1.220872953437444e-07	1.267598401236234e-07	-8.046940594281082e-07	1.093524895287718e-06	2.027739695796547e-08	1.439043463854314e-07	-9.972471391715334e-07
1.51	-0.08611590655743147	0.06844568686000299	0.8822066384734697	0.6018899813287829	-0.2282029069427996	-0.1510616262460259	-0.2655353970827466	0.5928060408636907	0.5928060408637459	0.05318203699289189	0.1744879596715068	0.2441124125696582	0.05382727053970701	0.1712541103765804	0.1048796725136368	0.2857551537456623	-1.311303534221083	0.01677599421632468	-0.283587238702006	0.7087625838995413	-1.674215343546639	-1.674215343546596	0.2730357426783879	0.000202834887104245	-0.6239206683611909	-0.1531215815619524	-0.04430783419975894	-0.02328911773567928	0.004734578130610235	-0.319100694941535	0.06577239571217743	-0.01382047560940969	0.1065162705518616	-36.90608420610327	-20.71102008335957	-5.208456921694902	-3.75850704105902	1.884859484545076	-661.5188550925158	59.2987580774279	0.02689046540969447	0.238309521501281	-0.4630245173738662	-0.5305466590258174	-0.01905336043244012	-0.5075291333217492	1.044710634191627	-0.6926435317570959	-0.6926435317516191	0.3549524200148517	-0.006042081495506692	-0.2954179462729397	0.01320798815804255	1.30224309530904e-07	1.277552608069807e-07	-9.064909853661409e-07	1.107273321394173e-06	3.006876649566145e-08	1.490960206633523e-07	-1.063952768635779e-06
1.52	-0.08440213976996019	0.06950621542113281	0.8850404762048375	0.5887522821104684	-0.2280357036200997	-0.1539227996385087	-0.2583967765464516	0.5760317967826228	0.5760317967826212	0.05592909320869975	0.1744894050442141	0.2378595004070412	0.0522975052845204	0.1714780092895825	0.1072085037890988	0.2809526423650108	-1.316047811542835	0.01666585539391477	-0.2886253736258961	0.7188499870841629	-1.680381400225708	-1.680381400225627	0.276356811619927	8.333162298160952e-05	-0.6265687086946342	-0.1528050903023346	-0.03927533807996009	-0.02499594563801156	0.004143597220163649	-0.3160445656855798	0.06996355432532272	-0.01488134426952783	0.101744193243037	-37.64779449233259	-19.28542815511183	-5.331076617317231	-3.840052166599983	1.366117546179239	-658.9414104376865	59.29153298686644	0.01973418169980583	0.2272770653419035	-0.4968400387564696	-0.4187696206140573	0.004513100704791962	-0.5033969332326095	0.9702605742387906	-0.5400979085093268	-0.540097908509324	0.2921555064197641	-0.02327518354295905	-0.2315320398460324	0.06065623375337553	1.384579491278092e-07	1.277474137890154e-07	-1.011570941682337e-06	1.114530810109354e-06	4.075318345428203e-08	1.524807413456492e-07	-1.1269419435088e-06
1.53	-0.08268680795469451	0.07058945853413677	0.8878245533664756	0.5755728874561449	-0.22786958959226	-0.1568338729621329	-0.2511607492222062	0.5592035030414862	0.559203503041484	0.05870874446722725	0.1744898441818578	0.2315828803387197	0.05077163206510932	0.171564700170633	0.109417361959779	0.2758083872110281	-1.319632316395368	0.01655754786949996	-0.2935627168387902	0.7282292254560023	-1.685017941600937	-1.685017941600949	0.2795545265932477	2.862006019074955e-06	-0.6286626182939856	-0.1523456322550515	-0.03411690031878038	-0.02687877119972551	0.003556394263810891	-0.313094433208371	0.07425331014445546	-0.0160413978120239	0.0968762290789348	-38.34817191675295	-17.84026549697722	-5.49682826995496	-3.910742156905675	0.8865511644842976	-656.4459923914096	59.25531023956297	-0.0003986921952004461	0.214288391075602	-0.5313477205361646	-0.2984557025695708	-0.01833951717840539	-0.4847062445495962	0.9028176201319253	-0.3865515431419081	-0.3865515431559469	0.3306468871912474	-0.0004866794678258148	-0.1843930682796218	0.04212510699209637	1.467942532225692e-07	1.266735948383948e-07	-1.120139117775332e-06	1.114891677846309e-06	5.238646329763501e-08	1.539455738325955e-07	-1.185982385378645e-06
1.54	-0.08097131627733015	0.07169410986847335	0.8905555620832099	0.5623636147962809	-0.2277045260072098	-0.1597934803637787	-0.243834717083955	0.5423366200283604	0.5423366200283918	0.06151978635438746	0.1744894678576351	0.225288106644746	0.04925106032952933	0.1715099817116886	0.1114901480556207	0.270338953384322	-1.322023412647801	0.01645576681851431	-0.2983321892209412	0.7368509498869887	-1.688099254620654	-1.688099254620758	0.282634937342671	-7.97607587326634e-05	-0.6301994338253163	-0.15174479353671	-0.02895846255772232	-0.028761596761512	0.002969191307567124	-0.3101443007311989	0.07854306596356771	-0.01720145135461961	0.09200826491475023	-39.00327111913731	-16.40430481980616	-5.659686810487068	-3.987039074572365	0.3998396664592827	-654.1122944386225	59.29591216748781	-0.008547686300394805	0.2000626503752838	-0.5618757733011589	-0.1800879005939816	0.005818395390440926	-0.469822767084308	0.8187577860672757	-0.2290522374067013	-0.2290522374067009	0.2686946616405623	-0.02370581310026745	-0.1201132262406085	0.08893236796513361	1.557878648517762e-07	1.258005846895225e-07	-1.23602589921894e-06	1.114586510057185e-06	6.41864305038827e-08	1.567510705033965e-07	-1.246159595948485e-06
